HIERARCHY
ROOT root
{
	OFFSET	0	13.1	24.9
	CHANNELS 6  Xposition Yposition Zposition Xrotation Yrotation Zrotation
	JOINT spine_1
	{
		OFFSET	0	9.99999	0
		CHANNELS 3  Xrotation Yrotation Zrotation
		JOINT spine_2
		{
			OFFSET	0	112	-10
			CHANNELS 3  Xrotation Yrotation Zrotation
			JOINT spine_3
			{
				OFFSET	0	206.5	19.3
				CHANNELS 3  Xrotation Yrotation Zrotation
				JOINT spine_4
				{
					OFFSET	0	110.4	14.6
					CHANNELS 3  Xrotation Yrotation Zrotation
					JOINT neck_1
					{
						OFFSET	0	71.8	-50.3
						CHANNELS 3  Xrotation Yrotation Zrotation
						JOINT neck_2
						{
							OFFSET	0	86.2	-25.8
							CHANNELS 3  Xrotation Yrotation Zrotation
							JOINT head_ee
							{
								OFFSET	0	179.8	-8.7
								CHANNELS 3  Xrotation Yrotation Zrotation
								End Site
								{
									OFFSET	1	0	0
								}
							}
						}
					}
					JOINT left_clavicle
					{
						OFFSET	-43.2	22.4	-70.8
						CHANNELS 3  Xrotation Yrotation Zrotation
						JOINT left_shoulder
						{
							OFFSET	-93.9	-5.79999	48.7
							CHANNELS 3  Xrotation Yrotation Zrotation
							JOINT left_elbow
							{
								OFFSET	-291.4	-30.8	15.2
								CHANNELS 3  Xrotation Yrotation Zrotation
								JOINT left_lowarm_twist
								{
									OFFSET	-110.7	-3.89999	13.6
									CHANNELS 3  Xrotation Yrotation Zrotation
									JOINT left_hand
									{
										OFFSET	-110.7	-3.89999	13.6
										CHANNELS 3  Xrotation Yrotation Zrotation
										JOINT left_ee
										{
											OFFSET	-80.8	-5.10001	12.1
											CHANNELS 3  Xrotation Yrotation Zrotation
											End Site
											{
												OFFSET	1	0	0
											}
										}
									}
								}
							}
						}
					}
					JOINT right_clavicle
					{
						OFFSET	43.2	22.4	-70.8
						CHANNELS 3  Xrotation Yrotation Zrotation
						JOINT right_shoulder
						{
							OFFSET	93.9	-5.79999	48.7
							CHANNELS 3  Xrotation Yrotation Zrotation
							JOINT right_elbow
							{
								OFFSET	291.4	-30.8	15.2
								CHANNELS 3  Xrotation Yrotation Zrotation
								JOINT right_lowarm_twist
								{
									OFFSET	110.7	-3.89999	13.6
									CHANNELS 3  Xrotation Yrotation Zrotation
									JOINT right_hand
									{
										OFFSET	110.7	-3.89999	13.6
										CHANNELS 3  Xrotation Yrotation Zrotation
										JOINT right_ee
										{
											OFFSET	80.8	-5.10001	12.1
											CHANNELS 3  Xrotation Yrotation Zrotation
											End Site
											{
												OFFSET	1	0	0
											}
										}
									}
								}
							}
						}
					}
				}
			}
		}
	}
	JOINT left_hip
	{
		OFFSET	-82.8	-127.5	0.300001
		CHANNELS 3  Xrotation Yrotation Zrotation
		JOINT left_knee
		{
			OFFSET	-28.2	-396.7	2.2
			CHANNELS 3  Xrotation Yrotation Zrotation
			JOINT left_ankle
			{
				OFFSET	-11.7	-411.3	35.4
				CHANNELS 3  Xrotation Yrotation Zrotation
				JOINT left_toes
				{
					OFFSET	0	-60	-88.6
					CHANNELS 3  Xrotation Yrotation Zrotation
					JOINT left_foot_ee
					{
						OFFSET	-22.5	-16.5	-42.2
						CHANNELS 3  Xrotation Yrotation Zrotation
						End Site
						{
							OFFSET	1	0	0
						}
					}
				}
			}
		}
	}
	JOINT right_hip
	{
		OFFSET	82.8	-127.5	0.300001
		CHANNELS 3  Xrotation Yrotation Zrotation
		JOINT right_knee
		{
			OFFSET	28.2	-396.7	2.2
			CHANNELS 3  Xrotation Yrotation Zrotation
			JOINT right_ankle
			{
				OFFSET	11.7	-411.3	35.4
				CHANNELS 3  Xrotation Yrotation Zrotation
				JOINT right_toes
				{
					OFFSET	0	-60	-88.6
					CHANNELS 3  Xrotation Yrotation Zrotation
					JOINT right_foot_ee
					{
						OFFSET	22.5	-16.5	-42.2
						CHANNELS 3  Xrotation Yrotation Zrotation
						End Site
						{
							OFFSET	1	0	0
						}
					}
				}
			}
		}
	}
}
MOTION
Frames: 16
Frame Time: 0.02
1880.93 716.114 -567.185 159.345 -72.8604 162.148 -1.18329 0.193332 -0.92316 -1.18285 0.251681 -0.908989 -1.18668 0.454363 -0.82654 -1.1875 0.31813 -0.887919 -16.7099 3.01749 10.3065 -16.4111 -0.0419487 10.7424 -0.0 0.0 -0.0 3.48379 23.5236 7.5016 -23.409 -21.1927 61.1983 1.27523 -32.2797 0.369052 -83.2114 -8.22763 5.225 -2.54827 13.3863 -10.5371 -0.0 0.0 -0.0 10.0264 11.6226 -19.8627 16.3329 -12.5102 -64.0012 0.253243 7.15052 -0.0158229 83.1772 4.20962 8.77863 -4.09606 -10.7907 22.2632 0.0 0.0 0.0 26.0068 30.7894 -27.5783 -32.9662 -0.0809293 4.98941 23.867 -7.63374 -3.30157 -19.4202 0.0 0.0 -0.0 0.0 -0.0 -7.14869 20.7087 -6.68214 -15.2817 -0.321989 -2.31611 39.8964 1.45677 4.87931 -30.1625 0.0 0.0 0.0 0.0 0.0 
1891.41 719.602 -567.776 156.992 -75.0937 159.844 -1.05472 -0.0475774 -1.04005 -1.05412 0.0186965 -1.04097 -1.05404 0.255703 -1.00925 -1.05545 0.09311 -1.03697 -18.6538 2.98249 11.695 -18.2705 -0.483854 12.0624 -0.0 0.0 -0.0 3.44635 23.3557 7.44842 -25.3428 -20.7846 61.514 1.1319 -29.2788 0.295677 -83.2285 -8.22978 5.22465 -2.4894 12.9972 -10.3612 -0.0 0.0 -0.0 10.3913 12.4656 -20.6489 16.819 -12.7237 -64.2426 0.449156 12.5441 -0.0493658 83.3312 4.22784 8.78629 -3.8134 -12.3476 19.3937 0.0 0.0 0.0 25.7294 29.7357 -25.0804 -24.9997 0.202892 3.80072 16.6989 -7.84794 -2.39756 -20.4102 0.0 0.0 -0.0 0.0 -0.0 -8.62837 20.9775 -6.71936 -12.1057 -0.306168 -1.82912 39.7247 2.99289 4.88091 -32.801 0.0 0.0 0.0 0.0 0.0 
1895.28 719.055 -565.858 156.059 -75.2707 158.896 -1.0957 -0.189157 -0.854833 -1.0953 -0.134381 -0.865136 -1.09291 0.067114 -0.872934 -1.09396 -0.0715865 -0.872578 -19.2259 3.02029 11.9997 -18.8226 -0.448859 12.3746 -0.0 0.0 -0.0 3.68735 23.0719 7.78258 -26.7799 -20.3536 61.7256 0.978046 -25.8495 0.224452 -83.0358 -8.20554 5.22858 -2.35298 12.4217 -9.78039 -0.0 0.0 -0.0 10.5982 12.8245 -21.0996 19.2644 -11.8384 -64.667 0.447448 12.4979 -0.0489954 83.1364 4.2048 8.77659 -3.88844 -13.4055 19.2658 0.0 0.0 0.0 26.5803 28.7941 -23.9597 -19.3094 0.303216 2.93367 12.1082 -6.1294 -1.75939 -20.9349 0.0 0.0 -0.0 0.0 -0.0 -9.96598 20.419 -6.59359 -9.38997 -0.271255 -1.41393 38.9745 3.33681 4.81956 -34.8221 0.0 0.0 0.0 0.0 0.0 
1907.1 717.281 -566.555 156.493 -75.543 159.247 -1.0636 -0.216127 -0.761904 -1.0633 -0.167209 -0.774111 -1.06073 0.0138825 -0.791841 -1.06159 -0.111344 -0.784097 -20.364 2.7155 10.1803 -20.0729 0.126405 10.5933 -0.0 0.0 -0.0 3.87959 23.7862 8.04853 -28.1898 -19.987 61.8126 0.811986 -21.9115 0.157186 -83.3556 -8.24577 5.222 -2.05018 11.3079 -8.38989 -0.0 0.0 -0.0 10.7345 11.3873 -21.4331 19.6084 -9.72589 -66.6143 0.601987 16.6051 -0.0878483 83.9552 4.30187 8.81682 -3.62966 -15.0087 16.6054 0.0 0.0 0.0 26.3438 28.2353 -22.6276 -13.517 0.316531 2.04541 10.6622 -5.19404 -1.55198 -21.4117 0.0 0.0 -0.0 0.0 -0.0 -11.6777 21.6439 -6.22646 -6.74579 -0.218391 -1.01165 39.3956 3.86807 4.86328 -36.87 0.0 0.0 0.0 0.0 0.0 
1914.34 717.168 -566.167 156.643 -76.2544 159.502 -1.07132 -0.174537 -0.693235 -1.07106 -0.130072 -0.702936 -1.06922 0.0339028 -0.714064 -1.06992 -0.0792928 -0.710457 -20.9495 2.68058 10.5846 -20.6351 -0.032919 10.9737 -0.0 0.0 -0.0 3.86973 23.6482 8.03558 -29.6644 -19.8688 61.7386 0.763194 -20.7098 0.139453 -83.6452 -8.28216 5.21585 -1.93319 10.8334 -7.86766 -0.0 0.0 -0.0 10.6797 11.809 -21.3039 20.7442 -8.4482 -67.7905 0.716054 19.5302 -0.123237 84.3975 4.35453 8.83797 -3.55278 -16.4448 15.2674 0.0 0.0 0.0 27.5999 27.3989 -22.3149 -9.58742 0.274457 1.44406 6.36706 -5.72116 -0.943106 -21.9358 0.0 0.0 -0.0 0.0 -0.0 -12.5234 21.2196 -6.03572 -4.7106 -0.165085 -0.703885 38.8436 3.33318 4.80796 -37.9598 0.0 0.0 0.0 0.0 0.0 
1926.99 721.622 -570.593 154.141 -77.0005 156.766 -1.03019 -0.230148 -0.673138 -1.02996 -0.186849 -0.686418 -1.02747 -0.025669 -0.71093 -1.02815 -0.137622 -0.697955 -21.6357 2.70133 10.1429 -21.3468 0.349493 10.5987 -0.0 0.0 -0.0 4.53949 23.7213 8.96257 -30.4021 -19.7142 61.7426 0.543816 -15.0772 0.0719681 -84.1048 -8.33984 5.2057 -1.87911 10.5259 -7.66723 -0.0 0.0 -0.0 11.2454 11.3073 -22.5737 20.6711 -7.86633 -67.7525 0.849293 22.817 -0.171382 85.034 4.4306 8.8677 -3.06627 -18.5244 11.0337 0.0 0.0 0.0 26.8211 27.7857 -20.5262 -8.81055 0.261261 1.32558 4.60009 -3.3504 -0.678864 -20.6406 0.0 0.0 -0.0 0.0 -0.0 -13.6103 21.6052 -5.55322 -5.25599 -0.180442 -0.786174 39.6066 2.9207 4.86983 -37.7785 0.0 0.0 0.0 0.0 0.0 
1939.67 718.948 -571.329 151.573 -77.3166 153.885 -1.09819 -0.169879 -0.48215 -1.09807 -0.138854 -0.491983 -1.09675 -0.0225812 -0.510703 -1.09709 -0.102953 -0.500728 -21.7743 2.92939 9.77599 -21.5065 0.990546 10.3643 -0.0 0.0 -0.0 5.11431 23.9612 9.75259 -31.4347 -19.434 61.3297 0.336686 -9.46907 0.027885 -84.7246 -8.41749 5.19126 -1.59529 10.0527 -6.06272 -0.0 0.0 -0.0 11.3227 11.1367 -22.7487 20.6392 -6.75269 -68.4055 0.962145 25.4829 -0.217565 85.4265 4.47766 8.88561 -2.56143 -21.5955 6.33988 0.0 0.0 0.0 27.2643 27.6444 -19.8686 -8.05939 0.246974 1.2112 4.10847 -2.97344 -0.606412 -19.7293 0.0 0.0 -0.0 0.0 -0.0 -14.8438 21.932 -5.03669 -6.05234 -0.201457 -0.90658 39.2899 1.48622 4.82696 -38.0646 0.0 0.0 0.0 0.0 0.0 
1952.53 714.41 -572.234 150.51 -77.5529 152.699 -1.09287 0.00314865 -0.459249 -1.09275 0.0323651 -0.458118 -1.09294 0.136321 -0.438562 -1.0932 0.065348 -0.454587 -21.5018 2.83422 8.98844 -21.2758 1.13884 9.58108 -0.0 0.0 -0.0 5.15001 23.6077 9.81719 -32.0697 -19.0486 61.0288 0.274766 -7.75112 0.0186139 -84.679 -8.41178 5.19236 -1.08454 7.19837 -4.05505 -0.0 0.0 -0.0 11.2479 11.8412 -22.572 20.5792 -5.39493 -69.1689 1.15318 29.7362 -0.306159 85.2475 4.45619 8.87748 -1.82567 -24.7778 0.514369 0.0 0.0 0.0 29.5896 27.065 -20.1438 -6.4891 0.21227 0.972733 4.08337 -3.65661 -0.604222 -20.2419 0.0 0.0 -0.0 0.0 -0.0 -15.9655 22.4887 -4.71999 -6.22074 -0.205686 -0.932077 40.3566 -0.0829657 4.90584 -37.3252 0.0 0.0 0.0 0.0 0.0 
1961.54 710.374 -575.355 150.823 -77.6347 153.186 -1.07633 0.0495323 -0.329216 -1.07627 0.0703807 -0.325397 -1.07665 0.142876 -0.300704 -1.07676 0.0935929 -0.319495 -21.6566 2.3121 8.0231 -21.4757 0.61787 8.4642 -0.0 0.0 -0.0 5.30426 23.54 10.0363 -32.7043 -18.0773 61.248 0.188581 -5.33707 0.00878943 -85.0075 -8.45287 5.1844 -0.686765 5.00331 -2.41697 -0.0 0.0 -0.0 11.2862 11.408 -22.6638 21.1953 -3.61299 -70.1005 1.31565 33.0921 -0.390879 85.2855 4.46074 8.87921 -1.26821 -27.5492 -3.84028 0.0 0.0 0.0 30.7717 27.066 -19.5986 -5.699 0.192339 0.853121 3.99677 -3.0469 -0.590272 -20.2955 0.0 0.0 -0.0 0.0 -0.0 -16.3189 23.4495 -4.55638 -5.34434 -0.182857 -0.799519 40.8782 -1.16669 4.94309 -37.4961 0.0 0.0 0.0 0.0 0.0 
1968.43 710.212 -576.388 150.705 -78.2195 153.424 -1.09854 0.109139 -0.480197 -1.09842 0.139474 -0.472279 -1.09953 0.243881 -0.427812 -1.09975 0.173256 -0.460959 -22.7503 2.90229 7.22625 -22.6106 2.27982 8.03908 -0.0 0.0 -0.0 5.56887 23.6875 10.4001 -33.1699 -17.1535 61.0557 0.175934 -4.98102 0.0076523 -84.7783 -8.4242 5.18998 -0.00798554 3.6822 1.49089 -0.0 0.0 -0.0 11.4256 13.4454 -22.939 21.8645 -2.96706 -69.7211 1.46292 35.9281 -0.47434 85.2181 4.45265 8.87614 -0.91614 -28.8014 -6.28122 0.0 0.0 0.0 31.9249 26.2956 -18.5328 -4.94784 0.171862 0.739662 3.83403 -1.40304 -0.563518 -20.6553 0.0 0.0 -0.0 0.0 -0.0 -17.7949 24.5131 -4.587 -2.00069 -0.0771916 -0.297319 40.3701 -2.33907 4.8946 -38.0938 0.0 0.0 0.0 0.0 0.0 
1989.58 706.681 -580.091 150.525 -78.7651 153.512 -1.10917 0.0904678 -0.601559 -1.10898 0.128563 -0.594584 -1.11023 0.261361 -0.549318 -1.11061 0.171328 -0.5837 -22.0896 3.11342 5.15291 -22.034 3.58038 6.18313 -0.0 0.0 -0.0 5.31421 23.7159 10.042 -33.3961 -15.5992 61.7086 0.194863 -5.51377 0.00938346 -85.1832 -8.47482 5.18004 0.910056 -1.1095 5.63498 -0.0 0.0 -0.0 11.3559 15.3768 -22.7185 21.0515 0.40695 -68.9014 1.57936 38.0357 -0.544398 85.2266 4.45367 8.87652 -0.0585518 -29.0934 -11.0554 0.0 0.0 0.0 32.4974 25.5354 -18.1508 -4.22782 0.150837 0.631163 4.54201 -1.54168 -0.666446 -20.8925 0.0 0.0 -0.0 0.0 -0.0 -19.2984 24.9694 -4.30037 -1.69982 -0.0662479 -0.252442 40.3098 -3.27578 4.88651 -38.2818 0.0 0.0 0.0 0.0 0.0 
2001.9 704.113 -585.276 151.469 -79.3299 154.472 -1.14149 0.125195 -0.546946 -1.14133 0.159745 -0.537872 -1.14278 0.278998 -0.486812 -1.14306 0.198614 -0.524764 -22.3491 3.08699 4.42664 -22.3177 3.8919 5.51312 -0.0 0.0 -0.0 5.57409 23.8654 10.3976 -34.6235 -14.8978 61.5208 0.227919 -6.44182 0.0128261 -84.6089 -8.403 5.19402 1.87324 -4.43858 10.8014 -0.0 0.0 -0.0 10.4413 17.7564 -20.5395 20.5172 0.497507 -68.7857 1.79499 41.6391 -0.6826 84.9508 4.42063 8.86386 0.669255 -29.5695 -15.2265 0.0 0.0 0.0 33.4029 25.3253 -17.3614 -3.66295 0.133389 0.546228 2.45423 -2.28126 -0.363137 -20.4243 0.0 0.0 -0.0 0.0 -0.0 -20.0118 25.0728 -3.94884 -0.684388 -0.0275749 -0.101407 40.4885 -5.20407 4.89989 -38.189 0.0 0.0 0.0 0.0 0.0 
2018.65 700.833 -590.601 149.406 -80.21 152.655 -1.11182 0.0913939 -0.689858 -1.11157 0.135105 -0.682645 -1.11306 0.287939 -0.633523 -1.11357 0.184274 -0.671045 -22.2686 4.02004 3.00052 -22.3094 6.35421 4.61778 -0.0 0.0 -0.0 5.65186 23.9197 10.5032 -34.6031 -14.3647 62.2274 0.19297 -5.46055 0.00920239 -84.8604 -8.43447 5.18799 2.26677 -3.4342 13.9324 -0.0 0.0 -0.0 10.468 19.7353 -20.4723 20.6637 2.12002 -67.0693 1.81302 41.9236 -0.694617 85.1926 4.4496 8.87497 1.02553 -29.3888 -17.1722 0.0 0.0 0.0 33.5908 25.2738 -16.4558 -2.69915 0.101685 0.401713 3.77707 -2.62567 -0.557386 -20.9187 0.0 0.0 -0.0 0.0 -0.0 -21.754 25.4592 -3.76748 0.675833 0.0284191 0.0998162 39.712 -8.40055 4.84125 -38.2813 0.0 0.0 0.0 0.0 0.0 
2032.24 693.114 -593.034 150.426 -80.1402 153.882 -1.03203 0.149333 -0.586158 -1.03186 0.186329 -0.575468 -1.03368 0.312522 -0.517894 -1.03399 0.226809 -0.56075 -21.8489 3.84817 2.02848 -21.9045 6.46176 3.61204 -0.0 0.0 -0.0 5.6895 23.5748 10.5759 -35.1113 -13.8816 62.2019 0.182269 -5.15942 0.00821211 -84.2348 -8.35613 5.20274 2.8593 -4.62653 17.5793 -0.0 0.0 -0.0 10.1121 21.3624 -19.55 20.6136 3.49611 -66.5293 1.89543 43.1918 -0.750354 85.2011 4.45062 8.87536 1.32822 -29.371 -18.8894 0.0 0.0 0.0 34.0513 24.9525 -16.1726 -0.985181 0.0393102 0.146076 4.39904 -4.02934 -0.651215 -20.6669 0.0 0.0 -0.0 0.0 -0.0 -22.8717 25.3961 -3.47398 0.880806 0.0372709 0.130024 40.8963 -8.24077 4.94306 -37.087 0.0 0.0 0.0 0.0 0.0 
2055.04 690.314 -596.461 152.173 -80.638 155.794 -0.99517 0.144029 -0.556968 -0.995016 0.179178 -0.546674 -0.996684 0.298681 -0.491679 -0.996955 0.217283 -0.532678 -21.4879 4.15851 0.914371 -21.5772 7.58345 2.69648 -0.0 0.0 -0.0 5.5901 23.5178 10.4392 -35.5836 -13.3353 62.2687 0.186671 -5.28333 0.00861271 -83.7336 -8.29326 5.21393 3.41214 -6.28482 20.8069 -0.0 0.0 -0.0 9.85106 23.3802 -18.791 20.1142 4.89718 -65.9747 1.9651 44.2245 -0.7985 85.1467 4.4441 8.87287 1.68437 -29.4023 -20.9536 0.0 0.0 0.0 33.9641 24.8788 -15.8153 -0.315024 0.0128432 0.0466376 3.49014 -4.98546 -0.520033 -20.6389 0.0 0.0 -0.0 0.0 -0.0 -23.9613 25.3908 -3.27644 0.580975 0.0243591 0.0858262 40.5664 -10.296 4.92818 -37.0124 0.0 0.0 0.0 0.0 0.0 
2073.22 680.645 -601.392 153.35 -81.0714 157.217 -0.799968 0.120614 -0.605876 -0.799778 0.158923 -0.596973 -0.801372 0.288522 -0.546251 -0.801734 0.198632 -0.584961 -19.0347 3.86237 1.64808 -19.0829 6.57489 3.08198 -0.0 0.0 -0.0 5.30719 23.5297 10.0409 -35.6759 -13.0606 62.6428 0.190971 -5.40433 0.00901323 -82.1986 -8.10005 5.24474 4.23915 -8.82997 25.6977 -0.0 0.0 -0.0 10.4463 28.0258 -19.6336 17.4001 7.43064 -62.2475 2.06177 45.5995 -0.866755 85.1456 4.44396 8.87282 2.09626 -29.6813 -23.4376 0.0 0.0 0.0 33.2553 24.7833 -15.1937 0.951787 -0.0403619 -0.140477 3.37361 -5.93163 -0.504873 -19.0863 0.0 0.0 -0.0 0.0 -0.0 -24.906 25.3324 -3.13899 0.351454 0.0146315 0.0519485 39.8372 -13.5606 4.89801 -35.2827 0.0 0.0 0.0 0.0 0.0 
